<?xml version="1.0" standalone="no"?>
<!DOCTYPE svg PUBLIC "-//W3C//DTD SVG 20010904//EN"
 "http://www.w3.org/TR/2001/REC-SVG-20010904/DTD/svg10.dtd">
<svg version="1.0" xmlns="http://www.w3.org/2000/svg"
 width="1200.000000pt" height="290.000000pt" viewBox="0 0 1200.000000 290.000000"
 preserveAspectRatio="xMidYMid meet">

<g transform="translate(0.000000,290.000000) scale(0.100000,-0.100000)"
fill="#000000" stroke="none">
<path d="M3132 2569 l223 -331 242 1 242 2 211 -316 c116 -174 208 -320 205
-325 -3 -5 0 -12 6 -16 8 -5 9 -3 4 7 -5 10 -5 11 3 4 5 -5 18 -24 29 -41 10
-17 41 -64 69 -105 28 -41 49 -80 46 -88 -2 -8 0 -11 6 -7 5 3 17 -5 26 -19 9
-14 13 -25 9 -25 -3 0 4 -12 18 -27 24 -26 10 -23 -22 4 -9 8 -23 13 -30 11
-10 -2 -13 5 -11 25 2 21 -1 27 -16 27 -18 0 -52 28 -38 31 24 5 33 4 45 -5
12 -9 12 -8 0 11 -7 12 -16 19 -19 15 -3 -4 -13 -8 -22 -10 -21 -3 -25 27 -6
46 9 9 9 12 0 12 -23 0 -27 -5 -27 -37 0 -17 3 -29 7 -27 5 3 8 1 8 -5 0 -15
-23 -26 -28 -13 -2 7 -12 12 -23 12 -10 0 -19 5 -19 10 0 6 -5 10 -12 10 -6 0
-31 21 -55 48 -24 26 -41 39 -37 29 6 -16 4 -16 -20 -6 -14 7 -26 16 -26 21 0
4 -9 8 -20 8 -11 0 -20 5 -20 10 0 6 -7 10 -16 10 -9 0 -18 9 -21 20 -3 11
-16 23 -29 26 -13 3 -24 10 -24 16 0 5 -4 6 -10 3 -5 -3 -24 2 -40 12 -25 15
-34 15 -50 5 -17 -10 -21 -10 -27 4 -3 9 0 20 7 24 9 6 5 13 -14 25 -15 10
-25 24 -22 31 3 8 1 14 -3 14 -17 0 -21 -32 -6 -46 8 -9 15 -20 15 -25 0 -6
-12 3 -27 18 -16 15 -27 32 -25 37 2 6 -6 2 -17 -8 -12 -11 -21 -14 -21 -8 0
7 -1 15 -2 19 -2 3 6 7 16 9 21 3 38 23 29 37 -2 4 -11 3 -19 -4 -8 -6 -14 -8
-15 -3 0 5 -4 0 -8 -10 -7 -18 -9 -17 -35 9 -20 20 -24 30 -16 40 8 10 6 13
-7 11 -12 -1 -17 5 -15 17 2 9 -2 25 -8 35 -11 16 -11 16 -6 -1 4 -12 2 -17
-6 -14 -7 2 -12 12 -11 21 0 10 -2 15 -5 12 -3 -3 -12 0 -20 7 -8 6 20 -41 64
-105 59 -90 83 -117 95 -113 10 3 20 1 24 -4 3 -7 0 -8 -9 -5 -28 11 -18 -23
17 -57 17 -18 25 -29 17 -24 -12 7 -13 6 -4 -6 6 -8 28 -40 48 -71 21 -33 43
-55 49 -51 6 3 7 1 3 -5 -8 -13 123 -214 134 -207 4 3 7 -1 6 -9 0 -8 177
-280 394 -605 l395 -591 3573 0 3572 0 0 1450 0 1450 -4545 0 -4546 0 223
-331z m689 -976 c13 -16 12 -17 -3 -4 -17 13 -22 21 -14 21 2 0 10 -8 17 -17z
m64 -55 c5 4 5 2 1 -5 -8 -14 -36 -6 -36 9 0 7 5 6 13 -1 8 -6 18 -7 22 -3z
m15 -37 c-13 -25 -13 -34 0 -26 6 4 7 -1 3 -11 -5 -15 -7 -15 -15 0 -8 14 5
56 18 56 2 0 0 -9 -6 -19z m470 -175 c-13 -13 -35 7 -25 24 5 8 11 8 21 -1 10
-8 12 -15 4 -23z m80 -77 c0 -6 -4 -7 -10 -4 -5 3 -10 11 -10 16 0 6 5 7 10 4
6 -3 10 -11 10 -16z m84 -47 c20 -27 20 -27 0 -9 -12 9 -23 15 -26 12 -2 -3
-5 2 -5 10 0 22 9 18 31 -13z m1 -41 c-3 -3 -10 1 -15 9 -8 13 -10 13 -10 1 0
-8 -3 -12 -6 -8 -3 3 -3 11 1 17 5 8 11 8 21 -1 8 -6 12 -14 9 -18z"/>
<path d="M3485 2046 c10 -14 19 -26 22 -26 7 0 -17 39 -28 46 -6 3 -3 -5 6
-20z"/>
<path d="M3549 1953 c23 -35 44 -63 48 -63 3 0 0 7 -7 15 -10 12 -10 18 1 33
13 15 12 16 -3 3 -15 -11 -19 -11 -25 5 -4 11 -18 30 -31 44 -14 14 -6 -2 17
-37z"/>
<path d="M678 1793 c7 -3 16 -2 19 1 4 3 -2 6 -13 5 -11 0 -14 -3 -6 -6z"/>
<path d="M723 1793 c9 -2 25 -2 35 0 9 3 1 5 -18 5 -19 0 -27 -2 -17 -5z"/>
<path d="M1050 1791 c0 -5 9 -7 20 -4 11 3 20 7 20 9 0 2 -9 4 -20 4 -11 0
-20 -4 -20 -9z"/>
<path d="M1452 1688 l2 -113 3 105 c3 68 8 107 16 112 8 5 7 8 -5 8 -16 0 -18
-11 -16 -112z"/>
<path d="M1772 1698 l2 -103 3 98 c3 76 7 97 18 97 12 0 15 -30 18 -167 l3
-168 2 173 2 172 -25 0 -25 0 2 -102z"/>
<path d="M1953 1793 c9 -2 23 -2 30 0 6 3 -1 5 -18 5 -16 0 -22 -2 -12 -5z"/>
<path d="M2018 1793 c12 -2 32 -2 45 0 12 2 2 4 -23 4 -25 0 -35 -2 -22 -4z"/>
<path d="M2238 1793 c12 -2 30 -2 40 0 9 3 -1 5 -23 4 -22 0 -30 -2 -17 -4z"/>
<path d="M1121 1764 c0 -11 3 -14 6 -6 3 7 2 16 -1 19 -3 4 -6 -2 -5 -13z"/>
<path d="M1301 1764 c0 -11 3 -14 6 -6 3 7 2 16 -1 19 -3 4 -6 -2 -5 -13z"/>
<path d="M3745 1769 c-4 -6 -5 -12 -2 -15 2 -3 7 2 10 11 7 17 1 20 -8 4z"/>
<path d="M3710 1756 c0 -4 7 -14 15 -22 8 -9 15 -11 15 -6 0 5 -7 15 -15 22
-8 7 -15 9 -15 6z"/>
<path d="M2403 1690 c0 -25 2 -35 4 -22 2 12 2 32 0 45 -2 12 -4 2 -4 -23z"/>
<path d="M1370 1715 c0 -5 5 -17 10 -25 5 -8 10 -10 10 -5 0 6 -5 17 -10 25
-5 8 -10 11 -10 5z"/>
<path d="M2252 1695 c0 -16 2 -22 5 -12 2 9 2 23 0 30 -3 6 -5 -1 -5 -18z"/>
<path d="M1031 1684 c0 -11 3 -14 6 -6 3 7 2 16 -1 19 -3 4 -6 -2 -5 -13z"/>
<path d="M1992 1675 c0 -16 2 -22 5 -12 2 9 2 23 0 30 -3 6 -5 -1 -5 -18z"/>
<path d="M2351 1684 c0 -11 3 -14 6 -6 3 7 2 16 -1 19 -3 4 -6 -2 -5 -13z"/>
<path d="M1061 1624 c0 -11 3 -14 6 -6 3 7 2 16 -1 19 -3 4 -6 -2 -5 -13z"/>
<path d="M1304 1545 c0 -49 1 -71 3 -48 2 23 2 64 0 90 -2 26 -3 8 -3 -42z"/>
<path d="M2058 1623 c7 -3 16 -2 19 1 4 3 -2 6 -13 5 -11 0 -14 -3 -6 -6z"/>
<path d="M723 1585 c-3 -9 -3 -18 -1 -21 3 -3 8 4 11 16 6 23 -1 27 -10 5z"/>
<path d="M1662 1570 c0 -19 2 -27 5 -17 2 9 2 25 0 35 -3 9 -5 1 -5 -18z"/>
<path d="M1621 1554 c0 -11 3 -14 6 -6 3 7 2 16 -1 19 -3 4 -6 -2 -5 -13z"/>
<path d="M1993 1510 c0 -36 2 -50 4 -32 2 17 2 47 0 65 -2 17 -4 3 -4 -33z"/>
<path d="M2253 1535 c0 -22 2 -30 4 -17 2 12 2 30 0 40 -3 9 -5 -1 -4 -23z"/>
<path d="M4260 1502 c0 -15 18 -34 29 -31 7 3 3 11 -9 21 -11 10 -20 14 -20
10z"/>
<path d="M722 1475 c0 -16 2 -22 5 -12 2 9 2 23 0 30 -3 6 -5 -1 -5 -18z"/>
<path d="M1131 1474 c0 -11 3 -14 6 -6 3 7 2 16 -1 19 -3 4 -6 -2 -5 -13z"/>
<path d="M1492 1465 c0 -16 2 -22 5 -12 2 9 2 23 0 30 -3 6 -5 -1 -5 -18z"/>
<path d="M2251 1444 c0 -11 3 -14 6 -6 3 7 2 16 -1 19 -3 4 -6 -2 -5 -13z"/>
<path d="M2018 1433 c7 -3 16 -2 19 1 4 3 -2 6 -13 5 -11 0 -14 -3 -6 -6z"/>
<path d="M1140 1417 c0 -10 8 -17 18 -17 9 0 13 4 7 8 -5 4 -13 11 -17 16 -5
5 -8 2 -8 -7z"/>
<path d="M1661 1414 c0 -11 3 -14 6 -6 3 7 2 16 -1 19 -3 4 -6 -2 -5 -13z"/>
<path d="M1185 1410 c-3 -5 -1 -10 4 -10 6 0 11 5 11 10 0 6 -2 10 -4 10 -3 0
-8 -4 -11 -10z"/>
<path d="M698 1403 c7 -3 16 -2 19 1 4 3 -2 6 -13 5 -11 0 -14 -3 -6 -6z"/>
<path d="M748 1403 c12 -2 32 -2 45 0 12 2 2 4 -23 4 -25 0 -35 -2 -22 -4z"/>
<path d="M978 1403 c6 -2 18 -2 25 0 6 3 1 5 -13 5 -14 0 -19 -2 -12 -5z"/>
<path d="M1978 1403 c6 -2 18 -2 25 0 6 3 1 5 -13 5 -14 0 -19 -2 -12 -5z"/>
<path d="M1620 1215 l0 -105 30 0 30 0 0 105 0 105 -30 0 -30 0 0 -105z"/>
<path d="M634 1295 c-9 -22 4 -35 37 -35 l29 0 0 -75 c0 -73 1 -75 25 -75 24
0 25 2 25 75 l0 75 30 0 c25 0 30 4 30 25 0 25 -1 25 -85 25 -66 0 -87 -3 -91
-15z"/>
<path d="M1960 1280 c0 -11 -4 -20 -10 -20 -5 0 -10 -9 -10 -20 0 -11 5 -20
10 -20 6 0 10 -20 10 -44 0 -35 5 -48 22 -60 40 -28 89 -14 69 20 -6 11 -11
15 -11 10 0 -5 -7 -3 -15 4 -22 19 -19 61 5 67 11 3 20 14 20 24 0 12 -7 19
-20 19 -13 0 -20 7 -20 20 0 15 -7 20 -25 20 -18 0 -25 -5 -25 -20z"/>
<path d="M862 1237 c-38 -40 -28 -98 20 -123 32 -16 92 -12 104 7 11 18 -16
40 -37 28 -13 -7 -26 -6 -41 3 -21 12 -17 13 40 16 64 3 64 3 58 30 -15 62
-101 85 -144 39z m72 -13 c27 -10 18 -24 -15 -24 -27 0 -30 2 -19 15 14 17 13
17 34 9z"/>
<path d="M1060 1184 l0 -74 29 0 c29 0 30 2 33 53 3 44 6 52 23 52 17 0 20 -8
23 -52 3 -49 5 -53 28 -53 22 0 24 4 24 44 0 27 6 48 15 56 24 20 39 -2 38
-55 -1 -43 0 -45 28 -45 28 0 29 1 29 53 0 68 -19 97 -65 97 -19 0 -37 -5 -40
-10 -5 -7 -11 -8 -19 -1 -6 5 -42 9 -79 9 l-67 0 0 -74z"/>
<path d="M1390 1154 l0 -104 30 0 c27 0 30 3 30 31 0 26 3 29 21 24 29 -10 74
12 88 41 16 36 14 58 -9 87 -19 24 -27 26 -90 25 l-70 0 0 -104z m115 31 c0
-25 -4 -30 -25 -30 -16 0 -26 6 -28 18 -6 30 6 49 30 45 18 -2 23 -9 23 -33z"/>
<path d="M1753 1252 c-23 -15 4 -37 42 -34 48 5 45 -14 -5 -22 -46 -7 -67 -34
-50 -65 13 -24 43 -35 73 -25 12 4 34 6 50 5 26 -2 27 -1 27 51 0 75 -18 98
-78 98 -26 0 -52 -4 -59 -8z m81 -97 c-4 -8 -15 -15 -25 -15 -10 0 -19 7 -19
15 0 9 9 15 25 15 18 0 23 -4 19 -15z"/>
<path d="M2122 1237 c-60 -63 10 -158 95 -130 42 14 36 38 -9 38 -21 1 -43 6
-50 13 -9 9 2 12 51 12 l63 0 -7 28 c-11 44 -34 62 -80 62 -30 0 -47 -6 -63
-23z m88 -28 c0 -5 -15 -9 -32 -9 -31 1 -32 2 -15 15 19 14 47 10 47 -6z"/>
<path d="M1849 988 c-1 -13 -1 -29 0 -36 1 -8 -2 -19 -8 -26 -8 -9 -7 -13 4
-13 11 0 15 13 15 49 0 48 -9 68 -11 26z"/>
<path d="M651 958 c-1 -27 3 -48 7 -48 4 0 6 17 4 38 -5 58 -10 62 -11 10z"/>
<path d="M2419 983 c-3 -18 3 -59 10 -65 3 -4 5 10 3 32 -4 36 -10 52 -13 33z"/>
<path d="M2895 980 c-4 -6 3 -10 14 -10 25 0 27 6 6 13 -8 4 -17 2 -20 -3z"/>
<path d="M760 976 c0 -2 9 -6 20 -9 11 -3 18 -1 14 4 -5 9 -34 13 -34 5z"/>
<path d="M930 976 c0 -2 9 -6 20 -9 11 -3 18 -1 14 4 -5 9 -34 13 -34 5z"/>
<path d="M1052 968 c9 -7 19 -24 21 -38 4 -21 4 -21 6 6 1 21 -5 34 -15 38
-25 10 -29 7 -12 -6z"/>
<path d="M1102 974 c9 -3 19 -13 22 -22 3 -12 4 -12 3 3 -1 12 -10 21 -22 22
-15 1 -15 0 -3 -3z"/>
<path d="M1283 930 c0 -30 2 -43 4 -27 2 15 2 39 0 55 -2 15 -4 2 -4 -28z"/>
<path d="M1318 970 c22 -10 30 -44 12 -53 -6 -3 -5 -4 2 -3 33 7 13 67 -21 65
-11 0 -9 -3 7 -9z"/>
<path d="M1385 970 c-8 -13 3 -30 18 -29 9 0 9 2 0 6 -20 8 -15 21 10 26 22 4
22 4 0 6 -12 0 -25 -3 -28 -9z"/>
<path d="M1473 948 c1 -23 7 -33 20 -34 11 -1 12 0 3 3 -8 2 -17 17 -20 34 -6
28 -6 28 -3 -3z"/>
<path d="M1580 946 c0 -20 2 -36 4 -36 8 0 12 61 4 66 -4 3 -8 -11 -8 -30z"/>
<path d="M1620 970 c8 -5 20 -10 25 -10 6 0 3 5 -5 10 -8 5 -19 10 -25 10 -5
0 -3 -5 5 -10z"/>
<path d="M1938 970 c24 -10 28 -28 12 -48 -5 -7 -2 -5 7 3 21 18 8 48 -23 52
-15 2 -14 1 4 -7z"/>
<path d="M2062 968 c-17 -17 -15 -33 6 -49 14 -11 15 -11 5 1 -19 21 -16 40
10 50 13 5 16 9 7 9 -9 1 -21 -4 -28 -11z"/>
<path d="M2161 941 c1 -28 3 -30 6 -11 3 14 9 30 14 36 5 7 3 11 -6 11 -11 0
-15 -11 -14 -36z"/>
<path d="M2285 970 c-8 -13 3 -30 18 -29 9 0 9 2 0 6 -18 7 -16 21 5 26 15 4
15 5 0 6 -9 0 -20 -3 -23 -9z"/>
<path d="M2558 973 c7 -3 16 -2 19 1 4 3 -2 6 -13 5 -11 0 -14 -3 -6 -6z"/>
<path d="M2643 945 c0 -22 2 -30 4 -17 2 12 2 30 0 40 -3 9 -5 -1 -4 -23z"/>
<path d="M2675 970 c27 -12 43 -12 25 0 -8 5 -22 9 -30 9 -10 0 -8 -3 5 -9z"/>
<path d="M2820 976 c0 -2 9 -6 20 -9 11 -3 18 -1 14 4 -5 9 -34 13 -34 5z"/>
<path d="M2800 946 c0 -14 4 -27 8 -30 5 -3 6 8 4 25 -5 35 -12 38 -12 5z"/>
<path d="M913 941 c1 -14 9 -26 17 -28 10 -3 11 -2 4 4 -7 4 -14 17 -17 28 -5
16 -5 15 -4 -4z"/>
<path d="M1527 941 c-4 -17 -3 -21 5 -13 5 5 8 16 6 23 -3 8 -7 3 -11 -10z"/>
<path d="M1692 935 c0 -16 2 -22 5 -12 2 9 2 23 0 30 -3 6 -5 -1 -5 -18z"/>
<path d="M2589 958 c-5 -17 -4 -48 3 -48 4 0 7 11 6 25 -2 21 -6 31 -9 23z"/>
<path d="M2752 935 c0 -16 2 -22 5 -12 2 9 2 23 0 30 -3 6 -5 -1 -5 -18z"/>
<path d="M791 927 c-13 -21 -12 -21 5 -5 10 10 16 20 13 22 -3 3 -11 -5 -18
-17z"/>
<path d="M1790 931 c0 -10 19 -25 25 -20 1 2 -3 10 -11 17 -8 7 -14 8 -14 3z"/>
<path d="M1900 931 c0 -6 4 -13 10 -16 6 -3 7 1 4 9 -7 18 -14 21 -14 7z"/>
<path d="M2106 923 c-6 -14 -5 -15 5 -6 7 7 10 15 7 18 -3 3 -9 -2 -12 -12z"/>
<path d="M2316 923 c-6 -14 -5 -15 5 -6 7 7 10 15 7 18 -3 3 -9 -2 -12 -12z"/>
<path d="M2541 924 c0 -11 3 -14 6 -6 3 7 2 16 -1 19 -3 4 -6 -2 -5 -13z"/>
</g>
</svg>
