<?xml version="1.0" standalone="no"?>
<!DOCTYPE svg PUBLIC "-//W3C//DTD SVG 20010904//EN"
 "http://www.w3.org/TR/2001/REC-SVG-20010904/DTD/svg10.dtd">
<svg version="1.0" xmlns="http://www.w3.org/2000/svg"
 width="1440.000000pt" height="256.000000pt" viewBox="0 0 1440.000000 256.000000"
 preserveAspectRatio="xMidYMid meet">

<g transform="translate(0.000000,256.000000) scale(0.100000,-0.100000)"
fill="#000000" stroke="none">
<path d="M0 2053 c0 -278 3 -503 8 -499 4 4 7 13 7 19 0 7 11 12 25 12 37 0
33 -42 -7 -81 l-33 -31 0 -737 0 -736 2591 0 c2528 0 2591 0 2586 19 -3 14 0
17 14 14 11 -3 20 1 23 8 2 8 9 33 15 57 10 36 16 42 39 42 15 0 39 6 54 14
28 15 127 15 163 0 26 -11 55 -36 55 -49 0 -6 -10 -22 -22 -35 -13 -14 -32
-36 -42 -48 l-19 -22 233 0 232 0 -6 26 -7 26 23 -26 23 -26 520 2 c401 2 514
6 495 14 -38 17 -47 33 -55 89 l-6 50 28 -32 c28 -33 28 -33 97 -26 l69 6 -7
-26 c-3 -15 -9 -38 -12 -52 l-6 -25 143 1 144 1 -60 17 c-89 26 -120 46 -139
86 -13 26 -24 35 -44 36 -15 1 -34 3 -42 4 -8 1 -20 3 -27 4 -6 0 -9 10 -6 20
7 27 72 39 89 17 6 -9 16 -16 21 -16 6 0 13 -9 16 -20 3 -11 21 -29 41 -41 20
-11 36 -25 36 -30 0 -5 11 -9 25 -9 14 0 25 5 25 11 0 6 7 9 16 7 8 -2 14 -7
12 -12 -5 -14 104 -45 123 -35 11 6 22 2 34 -11 12 -13 22 -17 30 -10 7 6 21
4 41 -6 18 -10 41 -13 64 -10 19 4 42 6 50 5 8 -1 336 -3 728 -5 485 -3 712
-1 712 6 0 5 14 10 30 10 17 0 30 -4 30 -10 0 -7 244 -10 713 -10 l714 0 11
25 c10 23 17 27 39 24 3 0 12 14 19 31 10 22 19 30 31 28 10 -2 37 8 60 24 23
15 46 28 52 28 6 0 11 4 11 10 0 11 72 50 92 50 7 0 22 -12 35 -28 22 -26 22
-26 23 -4 0 12 5 22 10 22 26 0 5 -33 -40 -62 -48 -32 -67 -68 -35 -68 18 0
19 -12 3 -28 -8 -8 -8 -12 -1 -12 5 0 22 14 36 31 14 17 30 28 35 25 10 -6 25
21 18 33 -3 4 18 19 45 34 39 23 49 25 49 13 0 -9 -4 -16 -10 -16 -5 0 -7 -7
-4 -15 4 -8 1 -15 -6 -15 -6 0 -10 -9 -8 -19 2 -10 -9 -33 -24 -49 -27 -30
-28 -45 -2 -35 8 3 14 12 14 20 0 10 6 13 15 9 9 -3 17 0 20 7 20 66 59 157
67 157 6 0 7 7 4 16 -4 11 1 18 14 21 11 3 23 17 27 32 3 14 19 41 35 59 53
61 32 72 -59 31 -24 -10 -54 -19 -68 -19 -14 0 -25 -4 -25 -8 0 -9 -70 -42
-88 -42 -7 0 -12 -4 -12 -10 0 -6 -9 -6 -25 0 -16 6 -25 6 -25 0 0 -6 -11 -10
-25 -10 -14 0 -25 -6 -25 -13 0 -10 -14 -13 -56 -9 -38 3 -59 1 -64 -8 -4 -6
-23 -15 -41 -19 -21 -5 -33 -13 -32 -22 5 -30 -69 -44 -88 -17 -3 5 -17 5 -30
0 -13 -4 -40 -6 -59 -3 l-34 6 25 15 c13 8 53 29 89 47 63 31 87 38 200 63 30
7 64 19 75 26 11 8 26 14 33 14 8 0 48 25 89 55 42 30 80 55 85 55 5 0 22 12
37 28 48 47 235 131 299 133 26 1 26 1 -5 10 -40 12 -42 24 -5 43 15 8 44 30
66 49 60 52 203 123 266 132 30 4 67 14 82 21 15 8 39 14 54 14 23 0 25 3 20
25 -5 20 -3 25 14 26 11 1 26 2 33 3 20 3 70 -25 61 -34 -5 -5 -28 -11 -52
-14 -23 -3 -55 -14 -71 -25 -16 -12 -38 -21 -48 -21 -10 0 -26 -9 -36 -20 -9
-11 -27 -20 -40 -20 -13 0 -32 -9 -42 -20 -18 -20 -18 -20 11 -16 16 3 58 7
94 10 36 3 92 15 125 27 58 20 65 21 173 7 62 -7 117 -11 122 -8 5 3 -21 21
-58 40 -37 19 -89 50 -116 68 -59 41 -116 62 -168 62 -61 0 -261 31 -276 43
-9 7 -16 7 -24 -1 -16 -16 -38 -15 -38 2 0 29 221 50 365 35 139 -15 156 -15
234 -1 40 7 70 8 81 2 24 -13 44 -65 36 -95 -6 -23 -1 -27 46 -48 29 -13 78
-32 108 -42 30 -10 88 -33 128 -52 40 -18 75 -33 78 -33 2 0 23 -12 47 -27 66
-43 71 -46 123 -76 27 -15 63 -38 80 -50 57 -40 128 -81 184 -105 30 -13 83
-37 118 -53 34 -16 62 -25 62 -19 0 5 -26 26 -57 47 -32 20 -60 41 -63 45 -8
10 -144 77 -210 103 -42 17 -54 26 -53 41 6 52 17 84 32 98 16 14 24 14 90 -5
75 -20 238 -96 303 -140 77 -52 253 -215 321 -297 99 -119 115 -132 204 -171
43 -18 85 -37 93 -41 44 -25 208 -127 229 -142 20 -15 44 -18 147 -18 l124 0
0 1280 0 1280 -1249 0 -1249 0 6 -22 c3 -14 2 -19 -6 -14 -7 4 -12 14 -12 22
0 11 -20 14 -100 14 l-100 0 0 -31 c0 -22 12 -44 39 -76 52 -59 61 -98 30
-129 -13 -12 -40 -26 -60 -29 -32 -6 -37 -4 -42 17 -4 12 -1 48 5 79 8 38 8
74 2 110 l-9 54 -850 2 -850 3 -19 -41 c-16 -36 -21 -40 -45 -34 -27 6 -60 41
-61 63 0 9 -204 12 -986 12 -928 0 -988 -1 -1000 -17 -20 -27 -18 -73 4 -71
63 5 86 -15 30 -27 -35 -8 -59 -20 -97 -47 -13 -10 -31 -18 -39 -18 -26 0
-142 -61 -155 -81 -7 -11 -21 -19 -32 -19 -24 -1 -79 -46 -71 -59 3 -5 -14
-25 -38 -45 -38 -31 -45 -34 -56 -20 -11 12 -8 20 15 44 16 17 34 30 41 30 16
0 39 29 30 38 -4 4 -78 10 -164 13 -113 4 -167 11 -194 23 -21 9 -54 19 -75
22 -46 7 -53 11 -53 30 0 9 -5 13 -12 9 -7 -4 -2 2 10 12 18 14 26 35 32 79 4
32 11 69 15 82 l7 22 -1943 -1 c-1504 -1 -1933 -4 -1894 -13 30 -7 45 -15 37
-20 -9 -5 -8 -13 4 -31 10 -15 13 -32 9 -46 -6 -18 -12 -20 -41 -16 -37 6
-117 64 -111 81 2 6 -5 19 -16 29 -19 16 -107 17 -1554 17 l-1533 0 0 -507z
m10039 448 c-13 -37 -34 -55 -54 -47 -9 3 -28 -8 -50 -29 -40 -41 -78 -50 -42
-11 12 14 34 38 50 55 15 16 27 34 27 40 0 6 6 8 14 5 8 -3 23 -1 33 5 29 17
33 13 22 -18z m1556 -21 c18 -34 18 -82 1 -129 l-12 -35 -28 50 c-34 59 -45
122 -25 135 26 16 48 9 64 -21z m-408 -14 c1 -29 -2 -35 -24 -41 -14 -3 -26
-5 -27 -3 0 2 -6 13 -13 25 -13 22 -6 34 27 46 29 11 35 7 37 -27z m-1687 -2
c0 -8 -5 -12 -10 -9 -6 4 -8 11 -5 16 9 14 15 11 15 -7z m-3175 -44 c89 -13
284 -14 332 0 38 11 47 10 90 -11 26 -12 56 -32 66 -43 10 -12 23 -22 28 -22
5 -1 13 -2 18 -3 16 -2 42 -32 36 -41 -3 -5 -26 -12 -51 -16 -25 -3 -48 -13
-51 -20 -3 -8 -21 -18 -42 -23 -44 -12 -132 -11 -125 1 3 4 -6 8 -20 8 -14 0
-26 -4 -26 -10 0 -5 -6 -10 -14 -10 -7 0 -19 -7 -26 -15 -11 -13 -15 -13 -22
-3 -7 9 -8 6 -5 -10 4 -17 2 -22 -7 -19 -8 3 -25 -1 -40 -8 -15 -8 -28 -14
-29 -14 -12 1 -36 -15 -31 -22 3 -5 1 -9 -4 -9 -4 0 -7 -19 -5 -42 2 -24 4
-50 5 -58 3 -37 -5 -47 -49 -63 -27 -9 -56 -17 -65 -17 -9 0 -38 -11 -64 -25
-26 -14 -54 -25 -63 -25 -9 0 -25 -6 -36 -13 -11 -7 -40 -19 -65 -27 -25 -8
-55 -21 -68 -29 -21 -12 -27 -12 -57 2 -28 14 -59 15 -182 11 -457 -15 -491
-14 -562 13 -130 49 -212 73 -251 73 -43 0 -58 13 -39 36 19 23 69 41 144 53
37 5 85 19 106 30 22 12 49 21 60 21 31 0 39 38 19 92 -24 64 -15 70 112 75
71 3 121 11 172 28 39 13 100 29 136 35 36 7 83 16 105 22 53 13 110 23 225
41 52 8 122 24 155 35 101 34 108 35 190 22z m4385 0 c0 -5 -2 -10 -4 -10 -3
0 -8 5 -11 10 -3 6 -1 10 4 10 6 0 11 -4 11 -10z m-7744 -47 c16 -21 18 -120
4 -158 -5 -14 -21 -38 -35 -53 -25 -27 -29 -41 -25 -94 1 -16 -3 -28 -10 -28
-6 0 -13 -8 -16 -17 -6 -17 -52 -117 -81 -178 -9 -16 -22 -54 -29 -84 -12 -44
-12 -56 -2 -62 21 -13 46 19 58 74 6 28 19 64 30 81 10 17 18 33 18 36 -1 3 8
23 19 45 11 22 24 55 28 73 3 17 10 32 15 32 4 0 16 17 25 38 22 44 42 61 70
56 26 -5 62 -47 45 -52 -10 -4 -10 -6 0 -12 8 -5 9 -13 2 -26 -15 -30 -21
-112 -8 -129 10 -14 15 -14 51 0 42 17 57 39 70 103 l7 32 39 -22 c21 -12 37
-24 34 -26 -6 -7 66 -72 81 -72 7 0 20 -20 29 -44 9 -24 29 -56 44 -72 59 -61
111 -104 128 -105 11 0 13 -3 6 -6 -30 -11 -1 -103 34 -110 10 -2 29 -6 43 -9
14 -3 36 -5 50 -5 44 1 50 -10 52 -102 1 -70 -1 -89 -15 -100 -20 -15 -61 -98
-76 -152 -6 -22 -33 -66 -59 -97 -26 -31 -67 -95 -90 -141 -40 -78 -47 -85
-93 -106 -38 -16 -54 -19 -69 -11 -13 7 -20 7 -20 1 0 -6 -7 -8 -15 -4 -9 3
-15 2 -14 -3 6 -24 -38 -84 -61 -84 -40 0 -1 83 44 94 19 5 27 15 31 40 9 48
3 69 -23 81 -12 5 -22 13 -22 16 0 4 -21 2 -47 -2 -36 -7 -54 -17 -73 -42 -52
-66 -93 -107 -109 -107 -9 0 -27 -9 -41 -20 -14 -11 -30 -20 -36 -20 -6 0 -26
-14 -45 -31 -19 -17 -46 -33 -61 -36 -16 -3 -28 -11 -28 -17 0 -15 -62 -56
-85 -56 -18 0 -18 1 1 16 13 11 15 17 7 20 -17 7 2 44 22 44 8 0 15 4 15 9 0
5 8 12 18 15 9 3 26 22 36 41 11 19 23 35 27 35 4 0 24 27 44 60 20 33 41 60
46 60 11 0 12 27 0 34 -4 3 -31 -3 -58 -13 -49 -18 -51 -18 -64 0 -19 26 -43
26 -29 0 13 -25 13 -31 0 -31 -5 0 -10 7 -10 15 0 8 -6 12 -15 9 -8 -3 -14 -9
-13 -12 2 -21 -5 -29 -24 -27 -37 4 -38 4 -38 19 0 22 -25 26 -52 8 -32 -21
-101 -80 -169 -144 -48 -45 -99 -64 -99 -38 0 6 -7 10 -17 10 -9 0 -14 3 -10
6 3 3 2 17 -3 30 -7 18 -6 22 4 18 15 -6 28 18 32 56 1 14 3 25 4 25 1 0 4 12
6 27 1 15 16 42 32 59 16 18 35 49 42 70 11 33 11 42 -5 66 l-18 27 -16 -23
c-9 -13 -28 -36 -43 -52 -21 -21 -28 -39 -28 -66 0 -40 -30 -100 -55 -109 -8
-4 -15 -12 -15 -19 0 -6 -9 -20 -19 -29 -11 -10 -23 -32 -27 -50 -6 -29 -37
-66 -56 -66 -4 0 -8 -10 -9 -22 0 -13 -3 -17 -6 -10 -8 19 25 153 48 196 12
24 19 52 17 74 l-3 37 -28 -47 c-15 -26 -36 -53 -46 -60 -10 -7 -24 -24 -31
-38 -33 -64 -87 -109 -102 -86 -21 32 7 107 62 168 48 52 55 115 12 111 -12
-2 -22 2 -22 8 0 5 -8 9 -17 7 -13 -2 -18 4 -18 25 -1 16 3 31 7 33 4 3 8 13
8 23 0 11 15 41 34 68 32 46 80 164 89 215 2 13 12 40 21 61 16 37 16 40 -4
73 -12 19 -26 32 -31 28 -5 -3 -9 -1 -9 5 0 25 20 18 39 -14 11 -19 27 -35 36
-35 8 0 15 -5 15 -11 0 -6 6 -7 12 -2 7 4 20 8 28 8 44 4 50 6 50 19 0 7 10
20 23 29 l22 15 -22 44 c-12 23 -23 58 -25 76 -4 28 -2 32 19 32 23 0 52 -23
71 -56 15 -27 85 -20 131 14 49 37 131 124 131 139 0 7 4 13 9 13 8 0 21 26
26 50 1 3 12 30 26 60 14 30 29 73 32 95 4 24 14 46 27 54 11 7 20 20 20 28 0
8 11 29 24 46 13 18 28 47 35 66 12 37 38 71 54 71 5 0 16 -8 23 -17z m-486
-33 c0 -5 -2 -10 -4 -10 -3 0 -8 5 -11 10 -3 6 -1 10 4 10 6 0 11 -4 11 -10z
m5190 -162 c-5 -7 -24 -32 -40 -55 -17 -24 -35 -43 -40 -43 -24 0 -7 43 38 93
37 44 48 52 50 36 2 -10 -2 -24 -8 -31z m-5745 33 c18 -8 16 -10 -15 -23 -40
-17 -50 -15 -50 13 0 20 27 25 65 10z m-1506 -14 c8 -11 5 -16 -15 -25 -54
-25 -85 -8 -42 22 27 20 42 20 57 3z m455 -34 c16 -3 24 -8 19 -12 -5 -3 -22
-23 -37 -43 -16 -22 -43 -42 -64 -49 -19 -6 -45 -22 -57 -35 -28 -30 -31 -30
-47 4 -24 46 2 107 58 141 18 10 55 8 128 -6z m-235 -140 c-1 -21 0 -42 2 -48
6 -22 -14 -95 -32 -116 -10 -12 -19 -18 -19 -13 -2 29 -33 -69 -34 -106 -1
-44 -1 -45 39 -56 l40 -10 -1 -62 c-1 -34 -3 -64 -5 -66 -2 -2 -18 -7 -36 -10
-26 -6 -35 -3 -56 20 -18 19 -37 28 -64 29 -52 4 -66 -6 -67 -47 -2 -31 -33
-98 -47 -98 -3 0 -14 9 -24 20 -10 11 -22 17 -26 14 -5 -3 -9 24 -9 60 0 51 4
67 17 75 12 6 19 28 23 79 5 45 14 79 27 98 11 16 18 34 16 39 -2 6 5 20 14
30 10 11 19 29 21 40 6 47 15 81 23 97 16 30 104 63 176 67 20 1 23 -4 22 -36z
m705 29 c2 -4 -4 -9 -15 -9 -10 -1 -19 2 -19 8 0 11 27 12 34 1z m8431 -12 c3
-11 11 -20 16 -20 17 0 10 -70 -7 -77 -18 -7 -47 24 -38 39 3 5 6 25 6 44 0
37 13 45 23 14z m-8435 -19 c0 -12 -20 -25 -27 -18 -7 7 6 27 18 27 5 0 9 -4
9 -9z m11078 -120 c87 -73 164 -194 181 -288 6 -29 13 -100 17 -158 8 -123 13
-129 80 -96 69 33 104 24 104 -26 0 -46 -29 -60 -119 -59 -60 1 -85 6 -91 16
-36 57 -150 181 -180 194 -14 6 -46 23 -71 38 -64 39 -136 53 -274 54 -66 0
-124 1 -128 2 -8 2 5 30 68 152 14 27 29 44 38 42 8 -1 17 6 21 15 3 10 10 25
15 33 5 8 12 22 14 31 5 16 46 33 152 64 33 10 64 21 70 26 19 18 45 8 103
-40z m-5268 15 c5 -13 16 -29 25 -34 26 -14 14 -43 -35 -80 -41 -32 -45 -33
-57 -16 -11 15 -10 21 3 35 8 9 14 26 12 36 -3 22 21 83 33 83 5 0 14 -11 19
-24z m1483 -33 c-3 -7 -9 -13 -13 -13 -5 0 -6 -18 -3 -39 5 -35 1 -43 -37 -85
-42 -46 -60 -56 -60 -35 0 6 -7 26 -16 45 -14 29 -14 39 -4 67 17 42 39 67 54
61 6 -2 17 4 25 14 11 16 17 17 36 8 12 -6 20 -16 18 -23z m497 -18 c-7 -8
-22 -15 -34 -15 -20 0 -19 1 4 14 34 19 45 19 30 1z m2922 -50 c-2 -14 -6 -25
-8 -25 -2 0 -4 11 -4 25 0 14 4 25 9 25 4 0 6 -11 3 -25z m-10081 -16 c42 -19
47 -25 59 -72 14 -56 33 -91 43 -80 4 3 7 -8 7 -25 0 -18 -4 -32 -10 -32 -5 0
-10 4 -10 10 0 5 -6 7 -14 4 -8 -3 -34 4 -59 15 -68 31 -124 41 -137 25 -9
-10 -5 -18 14 -35 25 -22 38 -27 78 -33 10 -1 28 -12 41 -24 13 -12 28 -22 34
-22 24 0 32 -84 11 -113 -7 -9 -38 -27 -69 -41 -33 -14 -66 -38 -79 -55 -12
-17 -28 -31 -36 -31 -8 0 -13 -4 -10 -8 3 -5 -20 -1 -52 9 -31 9 -93 27 -137
39 -44 13 -83 28 -87 34 -4 6 -8 8 -8 3 0 -9 -56 19 -65 33 -4 6 -1 18 6 26
13 16 17 73 5 92 -4 7 -4 17 0 24 5 8 0 9 -16 5 -16 -4 -23 -1 -27 14 -3 10
-12 19 -19 19 -23 0 -16 18 14 32 17 9 27 22 28 37 1 13 11 31 23 40 l22 17
-20 25 c-13 17 -18 34 -14 48 5 20 11 22 40 18 20 -4 31 -2 28 4 -4 5 4 9 17
9 24 -1 118 -80 118 -99 0 -6 7 -11 15 -11 20 0 19 16 -1 24 -12 5 -14 13 -9
34 8 35 14 41 61 57 52 19 156 11 215 -16z m4629 20 c48 -10 54 -16 53 -56 -1
-9 7 -8 28 2 43 23 86 19 114 -10 37 -36 34 -83 -10 -131 -19 -21 -35 -39 -35
-41 0 -2 16 -19 35 -38 l34 -35 -74 -74 c-41 -41 -75 -79 -75 -84 0 -7 -14
-16 -62 -40 -5 -2 -8 9 -8 25 0 23 -5 28 -25 29 -15 1 -25 -3 -25 -12 0 -7
-10 -19 -22 -25 -33 -17 -94 -82 -102 -107 -4 -12 -12 -22 -17 -22 -5 0 -9 -7
-9 -15 0 -9 -12 -20 -26 -25 -14 -6 -28 -19 -31 -30 -3 -11 -10 -20 -17 -20
-20 0 -36 -16 -43 -41 -13 -48 -3 -193 17 -247 21 -56 26 -97 12 -106 -5 -3
-7 -18 -4 -34 8 -57 -23 -48 -109 29 -39 35 -69 125 -64 190 3 30 6 90 9 134
4 95 30 162 61 157 77 -13 85 -13 85 -3 0 19 -26 65 -49 85 -12 11 -21 26 -21
35 0 21 23 85 36 102 6 8 14 27 18 43 4 16 18 43 31 60 13 17 28 50 34 74 10
35 16 42 37 42 27 0 49 -39 39 -71 -6 -18 11 -84 26 -103 17 -20 37 21 32 65
-4 34 -1 48 11 58 14 12 20 10 42 -13 15 -14 30 -26 33 -26 4 0 15 -15 25 -34
16 -29 23 -34 55 -33 31 1 42 7 59 34 12 18 22 39 22 47 0 7 -24 23 -52 36
-29 12 -58 29 -65 37 -7 9 -44 20 -91 27 -115 16 -136 39 -82 91 17 16 30 36
30 45 0 40 45 49 140 29z m1032 -69 c-4 -37 -21 -49 -37 -26 -10 14 -11 24 -4
38 15 27 45 19 41 -12z m-3910 -30 c-4 -25 -9 -30 -33 -31 -16 -1 -35 -2 -41
-3 -21 -3 -68 15 -68 27 0 6 3 7 6 4 4 -3 18 3 32 13 16 13 40 20 67 20 41 0
41 -1 37 -30z m-2425 -24 c2 -1 -3 -10 -10 -19 -16 -23 -51 -29 -73 -12 -29
21 -3 44 44 38 20 -3 38 -6 39 -7z m156 -26 c-3 -11 -14 -20 -24 -20 -30 0
-31 18 -2 28 16 6 29 11 30 11 0 1 -1 -8 -4 -19z m4805 -62 c20 -20 14 -57
-20 -132 -60 -131 -107 -181 -143 -155 -7 5 -12 -2 -13 -17 -1 -14 -4 -30 -7
-34 -10 -16 -64 -21 -87 -9 -33 19 -59 21 -75 8 -20 -17 -67 20 -71 55 -7 57
63 76 89 24 20 -41 31 -44 60 -14 24 26 59 35 59 16 0 -5 5 -10 11 -10 8 0 8
5 -1 15 -7 8 -19 15 -27 15 -7 0 -16 7 -19 15 -8 19 -30 19 -37 1 -6 -14 -30
-16 -43 -3 -7 6 10 11 28 8 4 0 6 13 4 30 -4 31 1 38 55 79 19 14 56 46 83 73
45 42 55 47 96 47 25 0 51 -5 58 -12z m7720 -8 c19 -5 57 -24 85 -43 55 -37
157 -133 157 -149 0 -5 12 -13 28 -19 30 -10 69 -61 64 -84 -2 -8 1 -15 6 -15
5 0 15 -19 21 -42 7 -24 17 -48 22 -54 15 -18 -39 -36 -121 -41 -41 -2 -81 -6
-89 -9 -7 -2 -19 0 -25 5 -18 15 -59 -6 -53 -28 3 -14 -5 -22 -32 -34 -61 -26
-77 -28 -106 -13 -15 8 -48 21 -72 28 -47 14 -114 73 -160 143 -90 136 -87
161 27 219 39 21 88 56 108 78 20 23 51 47 67 54 37 16 33 16 73 4z m-8385
-69 c18 -18 -100 -71 -159 -71 -12 0 -36 -8 -53 -17 -22 -13 -33 -15 -42 -6
-8 8 3 21 44 53 31 23 68 45 84 50 32 10 113 4 126 -9z m-858 -21 c8 -16 15
-46 15 -67 0 -21 18 -94 41 -163 26 -81 42 -151 46 -200 5 -75 5 -75 -24 -91
-27 -15 -31 -15 -51 1 -19 16 -27 40 -37 110 -2 14 -9 59 -15 100 -22 137 -23
169 -6 194 12 20 13 25 2 29 -7 3 -17 22 -20 42 -14 71 20 102 49 45z m995 6
c0 -2 -8 -10 -17 -17 -16 -13 -17 -12 -4 4 13 16 21 21 21 13z m-4531 -15 c8
-5 16 -19 18 -31 2 -12 -1 -19 -5 -16 -5 3 -16 -4 -25 -14 -15 -18 -13 -22 44
-80 33 -33 74 -67 91 -76 18 -9 28 -21 24 -29 -3 -8 0 -16 7 -18 7 -2 -15 -5
-47 -6 -37 -1 -82 6 -120 19 -34 11 -106 29 -161 40 -55 11 -113 23 -130 27
-47 9 -55 20 -48 66 3 23 9 47 14 52 12 15 126 54 172 58 21 3 40 6 42 9 9 9
110 8 124 -1z m12388 -17 c-3 -3 -12 -4 -19 -1 -8 3 -5 6 6 6 11 1 17 -2 13
-5z m-27 -24 c0 -5 -4 -10 -10 -10 -5 0 -10 5 -10 10 0 6 5 10 10 10 6 0 10
-4 10 -10z m-9510 -82 c0 -9 11 -28 25 -42 14 -14 25 -28 25 -32 0 -4 10 -18
22 -31 19 -20 22 -33 20 -91 -3 -91 -8 -102 -42 -102 -16 0 -30 -5 -32 -11 -2
-7 -19 -17 -38 -23 -28 -9 -34 -16 -32 -34 2 -12 -2 -22 -8 -22 -6 0 -10 -10
-8 -22 2 -19 -2 -24 -26 -26 -18 -2 -26 0 -21 7 3 6 12 11 19 11 17 0 10 71
-7 82 -18 11 -23 2 -26 -44 -2 -48 -3 -49 -27 -52 -11 -2 -22 -16 -27 -37 -5
-19 -22 -47 -38 -63 -28 -28 -33 -38 -30 -63 1 -7 -6 -24 -16 -39 -16 -26 -16
-27 6 -45 13 -11 18 -19 12 -19 -18 0 -26 5 -23 13 1 5 -2 6 -8 2 -7 -4 -7
-12 0 -25 5 -10 10 -25 10 -32 0 -18 -70 -98 -86 -98 -7 0 -17 -7 -22 -16 -5
-9 -15 -15 -22 -12 -10 3 -10 7 1 18 56 58 104 143 93 162 -4 7 -2 8 4 4 18
-11 14 9 -12 64 -13 28 -20 48 -15 44 16 -9 10 24 -11 61 -23 40 -25 49 -9 39
8 -5 8 -1 0 13 -6 11 -8 22 -6 25 3 2 7 22 11 44 3 21 11 48 18 59 7 11 12 35
10 53 -3 23 1 34 12 39 13 5 14 17 9 67 -6 54 -4 63 14 80 12 11 21 24 21 31
0 27 40 48 96 51 31 2 66 9 77 17 30 20 87 16 87 -5z m1602 -11 c-5 -7 -15
-34 -22 -62 -8 -30 -24 -60 -41 -75 -15 -14 -35 -47 -44 -75 -19 -59 -45 -92
-56 -73 -4 7 -3 19 4 26 6 8 12 21 14 30 1 9 7 18 12 20 6 2 11 8 11 14 0 5 7
24 15 41 8 18 24 58 36 90 14 40 29 62 45 69 13 6 24 16 25 22 0 6 3 5 6 -2 3
-7 1 -18 -5 -25z m1168 9 c0 -2 -7 -6 -15 -10 -8 -3 -15 -1 -15 4 0 6 7 10 15
10 8 0 15 -2 15 -4z m4840 -10 c0 -8 -31 -41 -70 -72 -56 -46 -70 -64 -70 -85
0 -50 -123 -152 -224 -185 -62 -21 -69 -14 -96 93 -21 85 -20 111 7 174 l15
36 131 6 c83 4 158 13 202 26 87 24 105 25 105 7z m1410 -50 c-8 -38 -46 -96
-62 -96 -5 0 -7 7 -4 16 3 9 6 19 6 23 0 9 58 91 64 91 2 0 0 -15 -4 -34z
m-7417 -102 c-3 -8 -15 -14 -27 -13 -11 0 -15 3 -8 6 6 2 12 14 12 25 0 17 3
18 14 8 8 -6 12 -18 9 -26z m5148 20 c8 -2 26 -22 38 -45 20 -35 21 -44 11
-70 -15 -36 -62 -63 -93 -54 -31 9 -148 54 -173 66 -26 13 -53 59 -46 79 13
39 22 42 136 35 61 -4 118 -9 127 -11z m-10694 -46 c-3 -7 -5 -2 -5 12 0 14 2
19 5 13 2 -7 2 -19 0 -25z m9253 8 c0 -7 8 -16 18 -18 14 -4 22 -22 30 -63 7
-32 11 -59 9 -60 -1 -2 -26 5 -55 14 -64 21 -79 38 -51 64 10 10 19 31 19 47
0 20 5 30 15 30 8 0 15 -6 15 -14z m-3991 -67 c-2 -27 -8 -57 -14 -66 -9 -12
-12 -5 -14 38 -1 29 -2 55 -3 58 -1 15 3 21 17 21 13 0 16 -11 14 -51z m1101
11 c0 -5 -5 -10 -11 -10 -5 0 -7 5 -4 10 3 6 8 10 11 10 2 0 4 -4 4 -10z
m-6380 -20 c0 -5 -2 -10 -4 -10 -3 0 -8 5 -11 10 -3 6 -1 10 4 10 6 0 11 -4
11 -10z m13634 -23 c6 -9 7 -20 2 -24 -4 -4 -12 0 -17 10 -6 9 -18 17 -27 17
-15 0 -15 2 -2 10 19 12 31 9 44 -13z m-12454 -22 c39 -21 7 -27 -86 -18 -65
7 -79 11 -82 27 -4 17 1 18 70 11 40 -4 84 -13 98 -20z m12515 15 c-3 -5 -12
-7 -20 -3 -21 7 -19 13 6 13 11 0 18 -4 14 -10z m-7355 -45 c0 -26 -14 -33
-25 -15 -9 14 1 40 15 40 5 0 10 -11 10 -25z m2935 -24 c26 -6 23 -8 -29 -15
-47 -6 -62 -5 -74 8 -15 15 -12 16 28 15 25 -1 59 -4 75 -8z m-3910 -10 c3 -5
1 -12 -5 -16 -5 -3 -10 1 -10 9 0 18 6 21 15 7z m945 -50 c0 -27 -21 -89 -35
-103 -4 -3 -20 -2 -36 4 -21 7 -29 16 -29 34 0 13 5 24 10 24 21 0 25 2 43 17
9 9 17 24 17 35 0 10 7 18 15 18 10 0 15 -10 15 -29z m-4912 -4 c7 -5 27 -17
44 -26 18 -9 39 -28 48 -43 13 -25 13 -29 -2 -44 -11 -11 -31 -17 -55 -16 -63
3 -102 -15 -111 -51 -7 -28 -13 -32 -45 -35 -37 -3 -125 32 -128 50 -5 29 -1
42 21 78 22 35 29 40 62 40 26 0 49 9 80 33 41 33 58 35 86 14z m5043 -12 c56
-38 97 -44 139 -20 38 22 66 18 100 -15 17 -16 37 -30 45 -30 8 0 15 -5 15
-10 0 -6 -15 -8 -39 -4 -35 6 -41 3 -57 -21 -17 -27 -17 -28 2 -41 30 -21 64
-58 64 -69 0 -12 -46 8 -71 31 -14 13 -28 24 -32 24 -4 0 -44 18 -89 39 -79
38 -168 112 -168 140 0 21 41 11 91 -24z m-4628 -8 c7 -22 5 -32 -9 -48 -24
-27 -31 -24 -44 16 -9 28 -9 39 1 51 18 22 41 13 52 -19z m7222 5 c-3 -3 -11
0 -18 7 -9 10 -8 11 6 5 10 -3 15 -9 12 -12z m4683 -37 c1 -1 0 -10 -4 -19 -7
-19 -44 -22 -44 -2 0 7 -7 19 -15 26 -25 21 -6 31 28 14 18 -9 33 -18 35 -19z
m-4382 -117 c-9 -166 -30 -254 -50 -203 -8 22 -105 81 -164 100 -52 17 -72 37
-103 105 -13 29 -14 38 -3 48 33 31 201 76 303 81 l24 1 -7 -132z m-6756 80
c0 -19 -34 -58 -50 -58 -8 0 9 55 23 78 11 17 27 5 27 -20z m11210 -12 c0 -11
-53 3 -62 17 -4 6 -5 14 -2 18 5 9 64 -23 64 -35z m-9903 2 c15 -20 10 -63 -9
-82 -13 -12 -18 -14 -18 -4 0 11 -2 11 -9 0 -7 -11 -11 -10 -24 3 -18 18 -13
40 16 73 23 25 31 27 44 10z m9855 -20 c-12 -12 -35 -1 -27 12 3 5 13 6 21 3
10 -4 12 -9 6 -15z m-6910 -5 c10 -9 18 -24 18 -34 0 -9 13 -28 29 -42 19 -16
26 -29 21 -37 -11 -18 -39 -5 -50 24 -5 14 -25 39 -44 57 -20 18 -36 36 -36
41 0 14 43 9 62 -9z m-6027 -49 c16 -6 43 -60 51 -101 3 -18 0 -21 -22 -18
-37 4 -53 24 -60 78 -7 48 -3 54 31 41z m5735 -25 c42 -25 60 -46 60 -72 0
-16 -5 -19 -30 -13 -34 6 -34 7 -20 -29 7 -18 7 -33 -1 -47 -11 -20 -11 -20
-32 0 -20 17 -127 51 -214 67 -41 8 -66 40 -52 67 9 17 11 17 26 2 22 -22 58
-34 102 -34 42 0 61 14 61 45 0 12 3 25 7 28 13 14 59 7 93 -14z m2374 -6 c17
-15 23 -24 13 -20 -10 4 -39 7 -64 7 l-45 0 23 20 c31 25 35 25 73 -7z m5016
-24 c0 -5 -4 -9 -10 -9 -5 0 -10 7 -10 16 0 8 5 12 10 9 6 -3 10 -10 10 -16z
m-13372 -46 c6 -16 13 -43 16 -60 4 -30 2 -32 -21 -31 -38 4 -49 28 -45 96 3
32 37 29 50 -5z m437 -30 c10 -14 19 -47 20 -72 3 -63 3 -61 24 -61 20 0 51
-62 51 -101 0 -16 -5 -20 -27 -17 -33 4 -73 58 -73 99 0 15 -6 34 -13 41 -27
28 -52 84 -49 111 4 37 43 37 67 0z m5901 -29 c2 -12 -1 -13 -12 -3 -7 6 -11
16 -8 21 7 11 17 3 20 -18z m-1574 -62 c15 -9 33 -30 39 -47 7 -16 24 -43 38
-58 16 -17 22 -31 15 -35 -11 -8 -32 -52 -59 -124 -34 -93 -135 -125 -174 -57
-9 16 -21 29 -28 29 -6 0 -13 6 -15 12 -3 7 -5 -5 -6 -26 -2 -45 -7 -53 -25
-38 -9 8 -11 27 -7 67 3 31 5 66 3 78 -8 55 -3 78 24 112 15 19 36 35 45 35
11 0 18 10 20 32 4 43 53 73 83 52 11 -8 32 -22 47 -32z m-4724 -35 c9 -22 9
-33 0 -50 -11 -22 -11 -22 -21 6 -5 15 -13 27 -18 27 -5 0 -9 7 -9 15 0 8 -5
15 -12 15 -6 0 -4 8 7 20 20 22 32 14 53 -33z m902 22 c0 -5 -4 -9 -8 -9 -5 0
-9 7 -9 15 0 8 4 12 9 9 4 -3 8 -9 8 -15z m2455 -24 c-8 -45 -28 -95 -36 -95
-6 0 -7 -4 -4 -10 3 -5 1 -10 -4 -10 -6 0 -11 -7 -11 -15 0 -8 -5 -15 -10 -15
-6 0 -18 -16 -27 -35 -10 -22 -24 -35 -35 -35 -11 0 -17 -4 -14 -8 5 -9 -15
-28 -52 -50 -19 -10 -22 -10 -22 5 0 9 3 14 6 10 11 -10 42 27 50 58 3 17 17
44 30 62 13 17 24 37 24 43 0 15 40 72 57 83 7 4 13 12 13 18 0 5 6 16 13 23
10 12 13 11 18 -3 4 -9 5 -20 4 -26z m5435 0 c13 -16 10 -49 -5 -48 -5 1 -21
15 -34 32 l-24 31 25 0 c14 0 31 -7 38 -15z m-2850 -28 c62 -97 77 -117 95
-127 11 -6 29 -23 40 -38 l20 -27 -29 22 c-54 43 -106 93 -106 103 0 5 -13 25
-30 43 -31 36 -39 60 -17 52 6 -3 19 -16 27 -28z m-3002 -9 c-4 -10 -48 -32
-48 -23 0 2 7 11 16 19 18 19 37 21 32 4z m5455 -99 c19 -26 19 -29 2 -95 -18
-77 -34 -94 -81 -94 -41 0 -74 39 -74 87 0 27 10 45 47 84 52 56 74 60 106 18z
m-5884 12 c12 -8 12 -12 -2 -25 -22 -23 -57 -21 -57 3 0 27 32 39 59 22z
m6327 -28 c-4 -4 -11 -1 -16 7 -16 25 -11 35 7 17 9 -9 13 -20 9 -24z m-6092
-2 c11 -17 -55 -71 -87 -71 -12 0 -13 7 -4 43 6 23 15 45 20 48 10 7 64 -8 71
-20z m2733 -9 c26 -21 66 -61 88 -88 22 -27 50 -57 62 -67 13 -10 23 -29 23
-43 0 -21 -4 -19 -49 26 -27 27 -58 62 -70 77 l-20 28 -1 -26 c0 -33 24 -93
55 -133 25 -35 41 -76 28 -76 -5 0 -28 20 -52 45 -49 50 -58 54 -69 25 -7 -19
-9 -19 -30 -5 -28 21 -112 138 -112 158 0 9 -4 19 -10 22 -5 3 -10 16 -10 28
1 20 2 20 11 5 9 -17 12 -17 39 -3 17 9 30 24 30 34 0 43 26 41 87 -7z m172
-69 c10 -10 43 -37 75 -61 32 -25 56 -51 56 -61 0 -10 7 -24 16 -32 18 -14 44
-62 44 -80 0 -18 -37 18 -62 60 -12 20 -32 46 -45 59 -12 13 -23 32 -23 42 0
11 -6 20 -12 20 -17 0 -96 69 -80 70 6 0 20 -8 31 -17z m4491 -48 c0 -8 -7
-15 -15 -15 -8 0 -15 7 -15 15 0 8 7 15 15 15 8 0 15 -7 15 -15z m-7780 -87
c0 -5 -4 -8 -10 -8 -5 0 -10 -9 -10 -19 0 -23 -17 -31 -53 -24 -15 3 -27 1
-27 -5 0 -12 -55 -21 -70 -12 -7 4 5 21 28 42 36 32 45 36 91 35 28 -1 51 -5
51 -9z m3200 -114 c0 -13 -4 -12 -25 3 -37 28 -41 47 -5 28 17 -9 30 -22 30
-31z m3360 24 c-1 -13 -34 -58 -43 -58 -5 0 -1 27 9 58 2 6 10 12 19 12 8 0
15 -6 15 -12z"/>
<path d="M3235 1810 c3 -5 2 -10 -4 -10 -18 0 -43 -48 -36 -70 7 -22 44 -27
63 -8 23 23 12 98 -15 98 -8 0 -11 -4 -8 -10z"/>
<path d="M2271 1152 c-24 -23 -31 -37 -29 -61 2 -29 4 -30 15 -15 7 10 13 21
13 26 0 4 6 8 14 8 14 0 33 56 23 67 -3 2 -19 -9 -36 -25z"/>
<path d="M3398 1142 c-30 -18 -48 -58 -21 -48 8 3 21 6 29 6 8 0 14 8 14 18 0
10 5 23 12 30 17 17 -2 13 -34 -6z"/>
<path d="M6636 1715 c-3 -9 0 -15 9 -15 8 0 15 7 15 15 0 8 -4 15 -9 15 -5 0
-11 -7 -15 -15z"/>
<path d="M3933 1243 c-7 -2 -13 -10 -13 -17 0 -7 -13 -25 -30 -41 -28 -27 -50
-88 -36 -102 10 -11 35 18 47 55 6 20 20 45 30 56 15 16 28 59 17 55 -2 0 -9
-3 -15 -6z"/>
<path d="M3970 999 c0 -5 5 -7 10 -4 6 3 10 8 10 11 0 2 -4 4 -10 4 -5 0 -10
-5 -10 -11z"/>
<path d="M3740 639 c0 -4 7 -9 15 -13 9 -3 15 0 15 8 0 7 -7 13 -15 13 -8 0
-15 -4 -15 -8z"/>
<path d="M11688 701 c-80 -11 -67 -22 27 -22 137 -1 180 -5 235 -26 8 -4 19
-5 24 -4 4 1 17 -8 27 -20 14 -16 23 -19 30 -12 8 8 4 15 -11 26 -18 13 -19
15 -5 21 9 3 31 6 48 7 31 0 31 1 8 10 -42 17 -308 30 -383 20z m292 -31 c0
-5 -4 -10 -10 -10 -5 0 -10 5 -10 10 0 6 5 10 10 10 6 0 10 -4 10 -10z"/>
<path d="M12306 575 c10 -8 26 -14 34 -14 11 0 10 3 -4 14 -11 8 -27 15 -35
15 -11 0 -10 -4 5 -15z"/>
<path d="M11488 533 c6 -2 18 -2 25 0 6 3 1 5 -13 5 -14 0 -19 -2 -12 -5z"/>
<path d="M11443 397 c-43 -44 -54 -67 -30 -67 6 1 41 7 77 15 36 8 89 14 118
15 28 0 52 2 52 4 0 2 -7 20 -15 40 l-15 36 -73 0 c-72 0 -72 0 -114 -43z"/>
<path d="M12290 366 c0 -2 7 -6 15 -10 8 -3 15 -1 15 4 0 6 -7 10 -15 10 -8 0
-15 -2 -15 -4z"/>
<path d="M12870 322 c0 -14 23 -32 42 -32 26 0 22 27 -4 34 -31 8 -38 7 -38
-2z"/>
<path d="M11570 249 c-78 -7 -121 -15 -155 -28 -26 -10 -88 -31 -99 -34 -13
-3 -47 -38 -88 -92 -38 -48 -50 -76 -25 -58 53 39 98 63 132 71 22 6 94 26
160 46 66 20 144 43 173 50 45 11 88 34 72 37 -3 0 -16 2 -30 5 -14 2 -34 5
-45 7 -11 2 -54 0 -95 -4z"/>
<path d="M13133 213 c9 -2 23 -2 30 0 6 3 -1 5 -18 5 -16 0 -22 -2 -12 -5z"/>
<path d="M13230 200 c8 -5 24 -10 34 -10 26 0 18 6 -19 14 -22 5 -26 4 -15 -4z"/>
<path d="M12634 82 c9 -11 35 -25 59 -32 23 -7 55 -19 72 -27 16 -9 54 -17 85
-20 l55 -3 -30 20 c-34 23 -117 50 -154 50 -14 0 -39 7 -55 15 -39 20 -53 19
-32 -3z"/>
<path d="M10860 10 c-9 -6 -10 -10 -3 -10 6 0 15 5 18 10 8 12 4 12 -15 0z"/>
<path d="M10980 10 c0 -5 5 -10 11 -10 5 0 7 5 4 10 -3 6 -8 10 -11 10 -2 0
-4 -4 -4 -10z"/>
</g>
</svg>
